<svg width="480" height="480" viewBox="0 0 480 480" fill="none" xmlns="http://www.w3.org/2000/svg">
<g clip-path="url(#clip0_13612_42231)">
<path d="M480 240C480 107.452 372.548 0 240 0C107.452 0 0 107.452 0 240C0 372.548 107.452 480 240 480C372.548 480 480 372.548 480 240Z" fill="#EEE6FA"/>
<path d="M191.139 202.017C198.381 202.017 204.72 206.882 206.594 213.877L216.328 250.214L225.968 213.911C227.83 206.899 234.176 202.017 241.432 202.017H272.283C279.512 202.017 285.844 206.864 287.729 213.843L296.322 245.64L303.168 219.857C305.961 209.339 315.482 202.017 326.364 202.017H339.536C340.943 202.017 341.91 203.432 341.399 204.743L310.242 284.706L300.372 309.847C297.968 315.971 292.058 320 285.479 320H276.591C270.815 320 266.943 314.066 269.268 308.779L281.093 281.889L256.764 219.772L234.073 278.007C232.39 282.326 229.2 285.891 225.094 288.042C219.516 290.963 212.86 290.963 207.282 288.042C203.175 285.891 199.985 282.326 198.302 278.007L171.517 209.265V274.494C171.517 280.743 167.957 286.446 162.343 289.191C157.808 291.409 152.504 291.409 147.97 289.191C142.356 286.446 138.796 280.743 138.796 274.494V218.017C138.796 209.18 145.959 202.017 154.796 202.017H191.139ZM155.156 160C160.053 160 164.06 161.681 167.176 165.042C170.292 168.291 171.851 172.325 171.851 177.143C171.851 181.961 170.292 186.051 167.176 189.412C164.06 192.661 160.053 194.286 155.156 194.286C150.371 194.286 146.364 192.661 143.137 189.412C140.02 186.051 138.462 181.961 138.462 177.143C138.462 172.325 140.021 168.291 143.137 165.042C146.364 161.681 150.371 160 155.156 160Z" fill="#210052"/>
</g>
<defs>
<clipPath id="clip0_13612_42231">
<rect width="480" height="480" fill="white"/>
</clipPath>
</defs>
</svg>
